<svg xmlns="http://www.w3.org/2000/svg" xmlns:xlink="http://www.w3.org/1999/xlink" version="1.1" width="181" height="60" viewBox="0 0 181 60" xml:space="preserve">
<desc>Created with Fabric.js 3.5.0</desc>
<defs>
</defs>
<rect x="0" y="0" width="100%" height="100%" fill="rgba(0,0,0,0)"></rect>
<g transform="matrix(0.3979 0 0 0.3979 90.3472 29.7609)" id="372330"  >
<g style="" vector-effect="non-scaling-stroke"   >
		<g transform="matrix(1 0 0 1 -154.94 -0.44)" id="Layer_1"  >
<path style="stroke: none; stroke-width: 0; stroke-dasharray: none; stroke-linecap: butt; stroke-dashoffset: 0; stroke-linejoin: miter; stroke-miterlimit: 4; is-custom-font: none; font-file-url: none; fill: rgb(184,26,93); fill-rule: nonzero; opacity: 1;"  transform=" translate(-72.12, -74.355)" d="m 72.12 146.48 c 39.83 0 72.12 -32.29 72.12 -72.12 S 111.96 2.23 72.12 2.23 S 0 34.52 0 74.35 s 32.29 72.12 72.12 72.12" stroke-linecap="round" />
</g>
		<g transform="matrix(1 0 0 1 -64.97 0)" id="Layer_1"  >
<path style="stroke: none; stroke-width: 0; stroke-dasharray: none; stroke-linecap: butt; stroke-dashoffset: 0; stroke-linejoin: miter; stroke-miterlimit: 4; is-custom-font: none; font-file-url: none; fill: rgb(184,26,93); fill-rule: nonzero; opacity: 1;"  transform=" translate(-162.09, -74.795)" d="m 162.09 0 c -2.32 0 -4.2 1.88 -4.2 4.2 v 141.19 c 0 2.32 1.88 4.2 4.2 4.2 s 4.2 -1.88 4.2 -4.2 V 4.2 c 0 -2.32 -1.88 -4.2 -4.2 -4.2" stroke-linecap="round" />
</g>
		<g transform="matrix(1 0 0 1 67.3213 -54.795)" id="Layer_1"  >
<path style="stroke: none; stroke-width: 0; stroke-dasharray: none; stroke-linecap: butt; stroke-dashoffset: 0; stroke-linejoin: miter; stroke-miterlimit: 4; is-custom-font: none; font-file-url: none; fill: rgb(0,0,0); fill-rule: nonzero; opacity: 1;"  transform=" translate(-294.3812, -20)" d="m 395.26 31.83 h 2.89 c 0.5 0 0.75 -0.22 0.75 -0.65 v -9.95 c 0 -0.39 0.12 -0.77 0.36 -1.14 c 0.24 -0.37 0.55 -0.71 0.94 -1.02 c 0.39 -0.31 0.82 -0.56 1.28 -0.73 c 0.47 -0.17 0.9 -0.26 1.32 -0.26 c 0.3 0 0.63 0.02 0.99 0.05 c 0.36 0.03 0.7 0.09 1.02 0.18 c 0.28 0.04 0.42 -0.09 0.42 -0.39 v -3.12 c 0 -0.35 -0.39 -0.52 -1.17 -0.52 c -0.54 0 -1.1 0.11 -1.67 0.34 c -0.57 0.23 -1.14 0.55 -1.69 0.98 c -0.55 0.42 -1.07 0.95 -1.54 1.58 c -0.11 0.13 -0.21 0.18 -0.29 0.15 c -0.09 -0.03 -0.13 -0.11 -0.13 -0.24 v -1.98 c 0 -0.32 -0.15 -0.49 -0.45 -0.49 h -3.15 c -0.3 0 -0.46 0.18 -0.46 0.55 v 16.09 c 0 0.2 0.04 0.34 0.13 0.44 c 0.09 0.1 0.24 0.15 0.46 0.15 m -11.76 -2.57 c -0.89 0 -1.66 -0.23 -2.31 -0.7 c -0.65 -0.47 -1.14 -1.15 -1.48 -2.05 c -0.34 -0.9 -0.5 -2 -0.5 -3.3 s 0.17 -2.44 0.5 -3.35 c 0.34 -0.91 0.83 -1.6 1.48 -2.08 c 0.65 -0.48 1.42 -0.72 2.31 -0.72 s 1.68 0.24 2.31 0.72 c 0.63 0.48 1.11 1.17 1.45 2.08 c 0.34 0.91 0.5 2.03 0.5 3.35 s -0.16 2.4 -0.49 3.3 c -0.32 0.9 -0.8 1.58 -1.43 2.05 c -0.63 0.47 -1.41 0.7 -2.34 0.7 m -0.03 2.89 c 1.71 0 3.21 -0.38 4.48 -1.14 c 1.28 -0.76 2.28 -1.8 3.01 -3.14 c 0.73 -1.33 1.09 -2.86 1.09 -4.6 s -0.36 -3.31 -1.07 -4.66 c -0.72 -1.35 -1.71 -2.42 -2.99 -3.18 c -1.28 -0.77 -2.77 -1.15 -4.49 -1.15 s -3.12 0.38 -4.4 1.14 c -1.29 0.76 -2.31 1.81 -3.05 3.17 c -0.75 1.36 -1.12 2.93 -1.12 4.73 s 0.36 3.23 1.09 4.57 c 0.73 1.33 1.73 2.38 3.01 3.14 c 1.28 0.76 2.76 1.14 4.45 1.14 m -9.77 -17.55 h -3.05 c -0.24 0 -0.36 -0.11 -0.36 -0.32 v -1.62 c 0 -0.61 0.15 -1.1 0.44 -1.49 c 0.29 -0.39 0.72 -0.59 1.28 -0.59 h 1.92 c 0.15 0 0.26 -0.04 0.34 -0.13 c 0.08 -0.09 0.11 -0.2 0.11 -0.33 l -0.03 -1.82 c 0 -0.39 -0.21 -0.59 -0.62 -0.59 h -3.09 c -1.45 0 -2.56 0.38 -3.33 1.14 c -0.77 0.76 -1.15 1.83 -1.15 3.22 v 2.11 c 0 0.28 -0.12 0.42 -0.36 0.42 h -2.47 c -0.2 0 -0.33 0.05 -0.41 0.15 c -0.08 0.1 -0.11 0.21 -0.11 0.34 v 2.05 c 0 0.28 0.16 0.42 0.49 0.42 h 2.63 c 0.15 0 0.23 0.1 0.23 0.29 v 13.46 c 0 0.35 0.15 0.52 0.45 0.52 h 3.28 c 0.33 0 0.49 -0.18 0.49 -0.55 v -13.39 c 0 -0.22 0.11 -0.33 0.33 -0.33 h 3.02 c 0.32 0 0.49 -0.14 0.49 -0.42 v -2.05 c 0 -0.13 -0.04 -0.24 -0.13 -0.34 c -0.09 -0.1 -0.22 -0.15 -0.39 -0.15 m -31.51 17.23 h 2.89 c 0.5 0 0.75 -0.22 0.75 -0.65 v -11.57 c 0.5 -0.5 0.96 -0.91 1.4 -1.24 c 0.43 -0.32 0.87 -0.57 1.32 -0.73 c 0.44 -0.16 0.93 -0.24 1.45 -0.24 c 0.91 0 1.59 0.23 2.05 0.7 c 0.45 0.47 0.68 1.12 0.68 1.97 v 11.18 c 0 0.22 0.04 0.37 0.13 0.46 c 0.09 0.09 0.23 0.13 0.42 0.13 h 2.99 c 0.46 0 0.68 -0.23 0.68 -0.68 v -11.83 c 0 -1.52 -0.46 -2.74 -1.38 -3.66 c -0.92 -0.92 -2.18 -1.38 -3.79 -1.38 c -0.74 0 -1.42 0.11 -2.05 0.32 c -0.63 0.22 -1.24 0.52 -1.82 0.91 s -1.19 0.86 -1.82 1.4 c -0.11 0.11 -0.2 0.15 -0.26 0.11 c -0.07 -0.03 -0.1 -0.11 -0.1 -0.24 v -1.69 c 0 -0.32 -0.14 -0.49 -0.42 -0.49 h -3.25 c -0.3 0 -0.45 0.18 -0.45 0.55 v 16.09 c 0 0.39 0.19 0.59 0.58 0.59 m -11.76 -2.57 c -0.89 0 -1.66 -0.23 -2.31 -0.7 c -0.65 -0.47 -1.14 -1.15 -1.48 -2.05 c -0.34 -0.9 -0.5 -2 -0.5 -3.3 s 0.17 -2.44 0.5 -3.35 c 0.34 -0.91 0.83 -1.6 1.48 -2.08 c 0.65 -0.48 1.42 -0.72 2.31 -0.72 s 1.68 0.24 2.31 0.72 c 0.63 0.48 1.11 1.17 1.45 2.08 c 0.34 0.91 0.5 2.03 0.5 3.35 s -0.16 2.4 -0.49 3.3 c -0.33 0.9 -0.8 1.58 -1.43 2.05 c -0.63 0.47 -1.41 0.7 -2.34 0.7 m -0.03 2.89 c 1.71 0 3.21 -0.38 4.49 -1.14 c 1.28 -0.76 2.28 -1.8 3.01 -3.14 c 0.73 -1.33 1.09 -2.86 1.09 -4.6 s -0.36 -3.31 -1.07 -4.66 c -0.72 -1.35 -1.71 -2.42 -2.99 -3.18 c -1.28 -0.77 -2.77 -1.15 -4.49 -1.15 s -3.12 0.38 -4.4 1.14 c -1.29 0.76 -2.31 1.81 -3.06 3.17 c -0.75 1.36 -1.12 2.93 -1.12 4.73 s 0.36 3.23 1.09 4.57 c 0.73 1.33 1.73 2.38 3.01 3.14 c 1.28 0.76 2.76 1.14 4.45 1.14 m -11.05 -23.89 c 0 -0.37 -0.16 -0.55 -0.49 -0.55 h -3.35 c -0.35 0 -0.52 0.21 -0.52 0.62 v 3.18 c 0 0.22 0.04 0.38 0.13 0.49 c 0.09 0.11 0.25 0.16 0.49 0.16 h 2.96 c 0.52 0 0.78 -0.25 0.78 -0.75 v -3.15 Z m -0.07 6.86 c 0 -0.35 -0.15 -0.52 -0.45 -0.52 h -3.28 c -0.33 0 -0.49 0.18 -0.49 0.55 v 16.09 c 0 0.2 0.04 0.34 0.13 0.44 c 0.09 0.1 0.25 0.15 0.49 0.15 h 2.83 c 0.28 0 0.48 -0.05 0.6 -0.16 c 0.12 -0.11 0.18 -0.29 0.18 -0.55 v -15.99 Z m -6.87 2.44 c 0.37 0 0.55 -0.16 0.55 -0.49 v -2.05 c 0 -0.3 -0.16 -0.46 -0.49 -0.46 h -3.67 c -0.19 0 -0.29 -0.1 -0.29 -0.29 v -4.97 c 0 -0.37 -0.15 -0.55 -0.45 -0.55 h -2.89 c -0.28 0 -0.43 0.17 -0.46 0.52 l -0.42 5.01 c 0 0.22 -0.1 0.32 -0.29 0.32 h -2.4 c -0.33 0 -0.49 0.14 -0.49 0.42 v 2.05 c 0 0.32 0.17 0.49 0.52 0.49 h 2.18 c 0.26 0 0.39 0.14 0.39 0.42 v 9.72 c 0 1.39 0.39 2.42 1.17 3.1 c 0.78 0.68 1.9 1.02 3.35 1.02 c 0.35 0 0.73 0 1.15 -0.02 c 0.42 -0.01 0.85 -0.03 1.28 -0.06 c 0.43 -0.03 0.81 -0.07 1.14 -0.11 c 0.41 -0.09 0.62 -0.3 0.62 -0.65 l 0.03 -1.69 c 0 -0.13 -0.04 -0.24 -0.13 -0.32 c -0.09 -0.09 -0.2 -0.13 -0.33 -0.13 h -1.92 c -0.74 0 -1.28 -0.16 -1.62 -0.49 c -0.35 -0.32 -0.52 -0.91 -0.52 -1.75 v -8.68 c 0 -0.24 0.11 -0.36 0.32 -0.36 h 3.67 Z m -17.14 6.4 v 2.31 c 0 0.35 -0.11 0.69 -0.34 1.02 c -0.23 0.34 -0.52 0.66 -0.89 0.96 c -0.37 0.3 -0.8 0.55 -1.3 0.75 c -0.5 0.19 -1.04 0.29 -1.62 0.29 c -0.91 0 -1.63 -0.22 -2.16 -0.65 c -0.53 -0.43 -0.8 -1.02 -0.8 -1.76 c 0 -0.54 0.15 -1.01 0.44 -1.41 c 0.29 -0.4 0.68 -0.74 1.17 -1.01 c 0.49 -0.27 1.05 -0.49 1.69 -0.65 c 0.64 -0.16 1.3 -0.26 2 -0.31 l 1.33 -0.1 c 0.33 -0.02 0.49 0.16 0.49 0.55 m -0.55 6.08 c 0.37 -0.35 0.57 -0.34 0.62 0.03 l 0.07 0.98 c 0.02 0.22 0.08 0.4 0.16 0.55 c 0.09 0.15 0.23 0.23 0.42 0.23 h 2.76 c 0.22 0 0.36 -0.05 0.44 -0.15 c 0.08 -0.1 0.11 -0.26 0.11 -0.5 v -11.44 c 0 -1.1 -0.24 -2.06 -0.72 -2.88 c -0.48 -0.81 -1.23 -1.45 -2.26 -1.9 c -1.03 -0.46 -2.38 -0.68 -4.05 -0.68 c -1.88 0 -3.46 0.31 -4.73 0.94 c -1.27 0.63 -2.19 1.56 -2.78 2.79 c -0.13 0.26 -0.17 0.43 -0.11 0.52 c 0.05 0.09 0.13 0.15 0.24 0.19 l 2.73 0.68 c 0.19 0.04 0.33 0.04 0.41 0 c 0.08 -0.04 0.15 -0.13 0.21 -0.26 c 0.48 -0.76 1.05 -1.3 1.71 -1.64 c 0.66 -0.34 1.37 -0.5 2.13 -0.5 c 1 0 1.78 0.27 2.34 0.8 c 0.56 0.53 0.85 1.27 0.85 2.23 v 0.75 c 0 0.17 -0.06 0.29 -0.16 0.36 c -0.11 0.06 -0.23 0.11 -0.36 0.13 l -1.62 0.1 c -1.91 0.09 -3.54 0.38 -4.91 0.88 c -1.36 0.5 -2.4 1.19 -3.12 2.06 c -0.71 0.88 -1.07 1.91 -1.07 3.1 c 0 1.41 0.47 2.55 1.41 3.43 c 0.94 0.88 2.25 1.32 3.92 1.32 c 1.1 0 2.09 -0.19 2.96 -0.57 c 0.87 -0.38 1.67 -0.89 2.4 -1.54 m -13.04 -21.77 c 0 -0.37 -0.16 -0.55 -0.49 -0.55 h -3.35 c -0.35 0 -0.52 0.21 -0.52 0.62 v 3.18 c 0 0.22 0.04 0.38 0.13 0.49 c 0.09 0.11 0.25 0.16 0.49 0.16 h 2.96 c 0.52 0 0.78 -0.25 0.78 -0.75 v -3.15 Z m -0.07 6.86 c 0 -0.35 -0.15 -0.52 -0.45 -0.52 h -3.28 c -0.32 0 -0.49 0.18 -0.49 0.55 v 16.09 c 0 0.2 0.04 0.34 0.13 0.44 c 0.09 0.1 0.25 0.15 0.49 0.15 h 2.83 c 0.28 0 0.48 -0.05 0.6 -0.16 c 0.12 -0.11 0.18 -0.29 0.18 -0.55 v -15.99 Z m -13.77 -0.85 c -1.62 0 -3.08 0.38 -4.35 1.14 c -1.28 0.76 -2.29 1.81 -3.02 3.17 c -0.74 1.36 -1.11 2.92 -1.11 4.7 s 0.36 3.3 1.09 4.63 c 0.73 1.33 1.73 2.37 3.01 3.12 c 1.28 0.75 2.74 1.12 4.39 1.12 c 1.04 0 1.97 -0.15 2.78 -0.44 c 0.81 -0.29 1.51 -0.67 2.1 -1.14 c 0.59 -0.47 1.08 -0.98 1.48 -1.54 c 0.4 -0.56 0.71 -1.09 0.93 -1.59 c 0.09 -0.3 0.02 -0.49 -0.19 -0.55 l -2.05 -0.55 c -0.15 -0.04 -0.26 -0.05 -0.32 -0.03 c -0.07 0.02 -0.13 0.08 -0.2 0.16 c -0.54 0.91 -1.13 1.62 -1.76 2.13 c -0.63 0.51 -1.43 0.76 -2.4 0.76 s -1.73 -0.23 -2.4 -0.7 c -0.67 -0.46 -1.2 -1.15 -1.58 -2.06 c -0.38 -0.91 -0.57 -2.04 -0.57 -3.38 s 0.18 -2.44 0.54 -3.35 c 0.36 -0.91 0.87 -1.6 1.53 -2.06 c 0.66 -0.46 1.42 -0.7 2.29 -0.7 c 0.56 0 1.04 0.11 1.43 0.33 c 0.39 0.22 0.74 0.51 1.04 0.88 c 0.3 0.37 0.6 0.79 0.88 1.27 c 0.09 0.24 0.24 0.34 0.45 0.29 l 2.86 -0.36 c 0.35 -0.02 0.45 -0.23 0.32 -0.62 c -0.32 -0.78 -0.8 -1.52 -1.41 -2.23 c -0.62 -0.7 -1.4 -1.28 -2.36 -1.72 c -0.95 -0.44 -2.08 -0.67 -3.38 -0.67 m -18.77 14.98 c -0.89 0 -1.66 -0.23 -2.31 -0.7 c -0.65 -0.47 -1.14 -1.15 -1.48 -2.05 c -0.34 -0.9 -0.5 -2 -0.5 -3.3 s 0.17 -2.44 0.5 -3.35 c 0.34 -0.91 0.83 -1.6 1.48 -2.08 c 0.65 -0.48 1.42 -0.72 2.31 -0.72 s 1.68 0.24 2.31 0.72 c 0.63 0.48 1.11 1.17 1.45 2.08 c 0.34 0.91 0.5 2.03 0.5 3.35 s -0.16 2.4 -0.49 3.3 c -0.32 0.9 -0.8 1.58 -1.43 2.05 c -0.63 0.47 -1.41 0.7 -2.34 0.7 m -0.03 2.89 c 1.71 0 3.21 -0.38 4.49 -1.14 c 1.28 -0.76 2.28 -1.8 3.01 -3.14 c 0.73 -1.33 1.09 -2.86 1.09 -4.6 s -0.36 -3.31 -1.07 -4.66 c -0.72 -1.35 -1.71 -2.42 -2.99 -3.18 c -1.28 -0.77 -2.77 -1.15 -4.49 -1.15 s -3.12 0.38 -4.4 1.14 c -1.29 0.76 -2.31 1.81 -3.05 3.17 c -0.75 1.36 -1.12 2.93 -1.12 4.73 s 0.36 3.23 1.09 4.57 c 0.73 1.33 1.73 2.38 3.01 3.14 c 1.28 0.76 2.76 1.14 4.45 1.14 m -13.49 -13.29 c 0.09 0.11 0.18 0.18 0.29 0.21 c 0.11 0.03 0.23 0.02 0.36 -0.05 l 2.01 -1.01 c 0.15 -0.09 0.21 -0.19 0.18 -0.32 c -0.03 -0.13 -0.09 -0.25 -0.18 -0.36 c -0.54 -0.87 -1.4 -1.59 -2.57 -2.18 c -1.17 -0.58 -2.56 -0.88 -4.16 -0.88 c -1.45 0 -2.71 0.23 -3.77 0.7 c -1.06 0.47 -1.88 1.11 -2.45 1.93 c -0.57 0.82 -0.86 1.78 -0.86 2.86 c 0 1.17 0.38 2.15 1.15 2.93 c 0.77 0.78 1.98 1.36 3.62 1.75 l 3.32 0.78 c 0.95 0.24 1.61 0.52 1.98 0.85 c 0.37 0.33 0.55 0.71 0.55 1.14 c 0 0.46 -0.16 0.84 -0.49 1.15 c -0.33 0.31 -0.76 0.56 -1.32 0.73 c -0.55 0.17 -1.16 0.26 -1.84 0.26 c -0.89 0.02 -1.64 -0.08 -2.26 -0.29 c -0.62 -0.22 -1.14 -0.51 -1.56 -0.88 c -0.42 -0.37 -0.8 -0.78 -1.12 -1.24 c -0.07 -0.09 -0.15 -0.14 -0.26 -0.16 c -0.11 -0.02 -0.25 0.02 -0.42 0.13 l -1.92 0.98 c -0.11 0.09 -0.16 0.19 -0.16 0.31 s 0.03 0.24 0.1 0.37 c 0.54 1.02 1.47 1.87 2.79 2.55 c 1.32 0.68 2.91 1.02 4.78 1.02 c 1.45 0 2.75 -0.22 3.88 -0.65 c 1.14 -0.43 2.03 -1.05 2.67 -1.85 c 0.64 -0.8 0.96 -1.77 0.96 -2.89 s -0.36 -2.1 -1.09 -2.97 c -0.73 -0.88 -1.93 -1.52 -3.62 -1.93 l -3.87 -1.04 c -0.89 -0.24 -1.46 -0.51 -1.72 -0.81 c -0.26 -0.3 -0.39 -0.62 -0.39 -0.94 c 0 -0.67 0.31 -1.19 0.94 -1.56 c 0.63 -0.37 1.41 -0.55 2.34 -0.55 s 1.8 0.18 2.47 0.55 c 0.67 0.37 1.21 0.82 1.62 1.37 m -16.65 0 c 0.09 0.11 0.18 0.18 0.29 0.21 c 0.11 0.03 0.23 0.02 0.36 -0.05 l 2.01 -1.01 c 0.15 -0.09 0.21 -0.19 0.18 -0.32 c -0.03 -0.13 -0.09 -0.25 -0.18 -0.36 c -0.54 -0.87 -1.4 -1.59 -2.57 -2.18 c -1.17 -0.58 -2.56 -0.88 -4.16 -0.88 c -1.45 0 -2.71 0.23 -3.77 0.7 c -1.06 0.47 -1.88 1.11 -2.45 1.93 c -0.58 0.82 -0.86 1.78 -0.86 2.86 c 0 1.17 0.38 2.15 1.15 2.93 s 1.98 1.36 3.62 1.75 l 3.31 0.78 c 0.95 0.24 1.61 0.52 1.98 0.85 c 0.37 0.33 0.55 0.71 0.55 1.14 c 0 0.46 -0.16 0.84 -0.49 1.15 c -0.32 0.31 -0.76 0.56 -1.32 0.73 c -0.55 0.17 -1.16 0.26 -1.84 0.26 c -0.89 0.02 -1.64 -0.08 -2.26 -0.29 c -0.62 -0.22 -1.14 -0.51 -1.56 -0.88 c -0.42 -0.37 -0.8 -0.78 -1.12 -1.24 c -0.06 -0.09 -0.15 -0.14 -0.26 -0.16 c -0.11 -0.02 -0.25 0.02 -0.42 0.13 l -1.92 0.98 c -0.11 0.09 -0.16 0.19 -0.16 0.31 s 0.03 0.24 0.1 0.37 c 0.54 1.02 1.47 1.87 2.79 2.55 c 1.32 0.68 2.91 1.02 4.78 1.02 c 1.45 0 2.75 -0.22 3.88 -0.65 c 1.14 -0.43 2.03 -1.05 2.67 -1.85 c 0.64 -0.8 0.96 -1.77 0.96 -2.89 s -0.36 -2.1 -1.09 -2.97 c -0.73 -0.88 -1.93 -1.52 -3.62 -1.93 l -3.87 -1.04 c -0.89 -0.24 -1.46 -0.51 -1.72 -0.81 c -0.26 -0.3 -0.39 -0.62 -0.39 -0.94 c 0 -0.67 0.31 -1.19 0.94 -1.56 c 0.63 -0.37 1.41 -0.55 2.34 -0.55 s 1.8 0.18 2.47 0.55 c 0.67 0.37 1.21 0.82 1.62 1.37 m -27.8 3.28 c -0.3 0 -0.39 -0.17 -0.26 -0.52 l 3.15 -8.65 c 0.07 -0.17 0.14 -0.26 0.23 -0.26 s 0.16 0.08 0.23 0.23 l 3.12 8.68 c 0.11 0.35 0.02 0.52 -0.26 0.52 h -6.21 Z m -7.18 9.68 h 3.15 c 0.17 0 0.31 -0.03 0.41 -0.1 c 0.1 -0.06 0.16 -0.16 0.18 -0.29 l 1.95 -5.33 c 0.07 -0.19 0.2 -0.29 0.39 -0.29 h 8.48 c 0.13 0 0.22 0.03 0.28 0.08 s 0.09 0.13 0.11 0.24 l 1.89 5.26 c 0.09 0.28 0.28 0.42 0.58 0.42 h 3.93 c 0.17 0 0.29 -0.09 0.36 -0.26 c 0.06 -0.17 0.06 -0.35 0 -0.52 l -8.12 -22.68 c -0.15 -0.43 -0.46 -0.65 -0.91 -0.65 h -4.06 c -0.22 0 -0.38 0.04 -0.49 0.13 c -0.11 0.09 -0.21 0.24 -0.29 0.46 l -8.19 22.72 c -0.09 0.24 -0.09 0.43 0 0.58 c 0.09 0.15 0.21 0.23 0.36 0.23" stroke-linecap="round" />
</g>
		<g transform="matrix(1 0 0 1 179.18 -53.1465)" style="" id="Layer_1"  >
		<text xml:space="preserve" font-family="LibreFranklin-SemiBold, 'Libre Franklin'" font-size="32.5" font-style="normal" font-weight="600" style="stroke: none; stroke-width: 1; stroke-dasharray: none; stroke-linecap: butt; stroke-dashoffset: 0; stroke-linejoin: miter; stroke-miterlimit: 4; is-custom-font: none; font-file-url: none; fill: rgb(0,0,0); fill-rule: nonzero; opacity: 1; white-space: pre;" ></text>
</g>
		<g transform="matrix(1 0 0 1 91.7425 -6.785)" id="Layer_1"  >
<path style="stroke: none; stroke-width: 0; stroke-dasharray: none; stroke-linecap: butt; stroke-dashoffset: 0; stroke-linejoin: miter; stroke-miterlimit: 4; is-custom-font: none; font-file-url: none; fill: rgb(0,0,0); fill-rule: nonzero; opacity: 1;"  transform=" translate(-318.8025, -68.01)" d="m 431.03 92.54 c 1.51 0 2.84 -0.11 3.97 -0.32 c 1.14 -0.22 2.15 -0.61 3.05 -1.19 c 0.9 -0.58 1.72 -1.39 2.46 -2.43 c 0.74 -1.04 1.45 -2.41 2.14 -4.11 l 11.35 -28.44 c 0.14 -0.25 0.14 -0.5 0 -0.73 c -0.15 -0.23 -0.36 -0.35 -0.65 -0.35 h -3.95 c -0.25 0 -0.46 0.07 -0.62 0.22 c -0.16 0.14 -0.3 0.32 -0.41 0.54 l -6.65 17.73 c -0.14 0.4 -0.31 0.59 -0.49 0.59 s -0.33 -0.16 -0.43 -0.49 l -6.7 -17.79 c -0.07 -0.25 -0.21 -0.45 -0.41 -0.59 c -0.2 -0.14 -0.42 -0.22 -0.68 -0.22 h -5.62 c -0.36 0 -0.61 0.12 -0.76 0.35 c -0.14 0.24 -0.16 0.51 -0.05 0.84 l 10.38 25.62 c 0.22 0.51 0.26 1.07 0.13 1.7 c -0.13 0.63 -0.38 1.23 -0.76 1.81 c -0.38 0.58 -0.86 1.06 -1.46 1.46 c -0.59 0.4 -1.25 0.6 -1.97 0.6 h -3.57 c -0.61 0 -1.03 0.08 -1.24 0.24 c -0.22 0.16 -0.33 0.35 -0.33 0.57 v 3.46 c 0 0.43 0.27 0.69 0.81 0.78 c 0.54 0.09 1.35 0.14 2.43 0.14 m -23 -8.92 h 4.81 c 0.83 0 1.24 -0.36 1.24 -1.08 v -16.54 c 0 -0.65 0.2 -1.28 0.59 -1.89 c 0.4 -0.61 0.92 -1.18 1.57 -1.7 c 0.65 -0.52 1.36 -0.93 2.14 -1.22 c 0.77 -0.29 1.5 -0.43 2.19 -0.43 c 0.51 0 1.05 0.03 1.65 0.08 c 0.6 0.05 1.16 0.15 1.7 0.3 c 0.47 0.07 0.7 -0.14 0.7 -0.65 v -5.19 c 0 -0.58 -0.65 -0.86 -1.95 -0.86 c -0.9 0 -1.83 0.19 -2.78 0.57 c -0.96 0.38 -1.89 0.92 -2.81 1.62 c -0.92 0.7 -1.78 1.58 -2.57 2.62 c -0.18 0.22 -0.34 0.3 -0.49 0.24 c -0.14 -0.06 -0.22 -0.19 -0.22 -0.41 v -3.3 c 0 -0.54 -0.25 -0.81 -0.76 -0.81 h -5.24 c -0.51 0 -0.76 0.31 -0.76 0.92 v 26.76 c 0 0.32 0.07 0.57 0.22 0.73 c 0.14 0.16 0.4 0.24 0.76 0.24 m -19.23 -4.27 c -1.48 0 -2.76 -0.39 -3.84 -1.16 c -1.08 -0.77 -1.9 -1.91 -2.46 -3.41 c -0.56 -1.5 -0.84 -3.33 -0.84 -5.49 s 0.28 -4.05 0.84 -5.57 c 0.56 -1.51 1.38 -2.67 2.46 -3.46 c 1.08 -0.79 2.36 -1.19 3.84 -1.19 s 2.79 0.4 3.84 1.19 c 1.04 0.79 1.85 1.95 2.4 3.46 c 0.56 1.51 0.84 3.37 0.84 5.57 s -0.27 3.99 -0.81 5.49 c -0.54 1.5 -1.33 2.63 -2.38 3.41 c -1.05 0.78 -2.34 1.16 -3.89 1.16 m -0.05 4.81 c 2.85 0 5.33 -0.63 7.46 -1.89 c 2.13 -1.26 3.79 -3 5 -5.22 c 1.21 -2.22 1.81 -4.77 1.81 -7.65 s -0.6 -5.5 -1.78 -7.76 c -1.19 -2.25 -2.85 -4.02 -4.97 -5.3 c -2.13 -1.28 -4.61 -1.92 -7.46 -1.92 s -5.18 0.63 -7.32 1.89 c -2.14 1.26 -3.84 3.02 -5.08 5.27 c -1.24 2.25 -1.87 4.88 -1.87 7.87 s 0.6 5.38 1.81 7.6 c 1.21 2.22 2.87 3.96 5 5.22 c 2.13 1.26 4.6 1.89 7.41 1.89 m -16.19 -24.27 c 0.61 0 0.92 -0.27 0.92 -0.81 v -3.41 c 0 -0.5 -0.27 -0.76 -0.81 -0.76 h -6.11 c -0.33 0 -0.49 -0.16 -0.49 -0.49 v -8.27 c 0 -0.61 -0.25 -0.92 -0.76 -0.92 h -4.81 c -0.47 0 -0.72 0.29 -0.76 0.87 l -0.7 8.33 c 0 0.36 -0.16 0.54 -0.49 0.54 h -4 c -0.54 0 -0.81 0.24 -0.81 0.7 v 3.41 c 0 0.54 0.29 0.81 0.86 0.81 h 3.62 c 0.43 0 0.65 0.24 0.65 0.7 v 16.17 c 0 2.31 0.65 4.03 1.95 5.16 c 1.3 1.13 3.15 1.7 5.57 1.7 c 0.58 0 1.22 0 1.92 -0.03 c 0.7 -0.02 1.41 -0.05 2.14 -0.11 c 0.72 -0.05 1.35 -0.12 1.89 -0.19 c 0.68 -0.14 1.03 -0.5 1.03 -1.08 l 0.05 -2.81 c 0 -0.22 -0.07 -0.4 -0.22 -0.54 c -0.14 -0.14 -0.32 -0.22 -0.54 -0.22 h -3.19 c -1.23 0 -2.13 -0.27 -2.7 -0.81 c -0.58 -0.54 -0.86 -1.51 -0.86 -2.92 v -14.43 c 0 -0.4 0.18 -0.6 0.54 -0.6 h 6.11 Z m -28.16 10.65 v 3.84 c 0 0.58 -0.19 1.14 -0.57 1.7 c -0.38 0.56 -0.87 1.09 -1.49 1.6 c -0.61 0.51 -1.33 0.92 -2.16 1.24 c -0.83 0.33 -1.73 0.49 -2.7 0.49 c -1.51 0 -2.71 -0.36 -3.6 -1.08 c -0.88 -0.72 -1.32 -1.69 -1.32 -2.92 c 0 -0.9 0.24 -1.68 0.73 -2.35 c 0.49 -0.67 1.14 -1.22 1.95 -1.68 c 0.81 -0.45 1.75 -0.81 2.81 -1.08 c 1.06 -0.27 2.17 -0.44 3.33 -0.51 l 2.22 -0.16 c 0.54 -0.04 0.81 0.27 0.81 0.92 m -0.92 10.11 c 0.61 -0.58 0.95 -0.56 1.03 0.05 l 0.11 1.62 c 0.04 0.36 0.13 0.67 0.27 0.92 c 0.14 0.25 0.38 0.38 0.7 0.38 h 4.6 c 0.36 0 0.6 -0.08 0.73 -0.24 c 0.13 -0.16 0.19 -0.44 0.19 -0.84 v -19.03 c 0 -1.84 -0.4 -3.43 -1.19 -4.78 c -0.79 -1.35 -2.05 -2.41 -3.76 -3.16 c -1.71 -0.76 -3.96 -1.14 -6.73 -1.14 c -3.14 0 -5.76 0.52 -7.87 1.57 c -2.11 1.05 -3.65 2.6 -4.62 4.65 c -0.22 0.43 -0.28 0.72 -0.19 0.86 c 0.09 0.14 0.23 0.25 0.41 0.32 l 4.54 1.14 c 0.32 0.07 0.55 0.07 0.68 0 c 0.13 -0.07 0.24 -0.22 0.35 -0.43 c 0.79 -1.26 1.74 -2.17 2.84 -2.73 c 1.1 -0.56 2.28 -0.84 3.54 -0.84 c 1.66 0 2.95 0.44 3.89 1.32 c 0.94 0.88 1.41 2.12 1.41 3.7 v 1.24 c 0 0.29 -0.09 0.49 -0.27 0.6 c -0.18 0.11 -0.38 0.18 -0.59 0.22 l -2.7 0.16 c -3.17 0.14 -5.89 0.63 -8.16 1.46 c -2.27 0.83 -4 1.97 -5.19 3.43 c -1.19 1.46 -1.78 3.18 -1.78 5.16 c 0 2.34 0.78 4.24 2.35 5.7 c 1.57 1.46 3.74 2.19 6.51 2.19 c 1.84 0 3.48 -0.32 4.92 -0.95 c 1.44 -0.63 2.78 -1.49 4 -2.57 m -35.86 2.97 h 4.81 c 0.83 0 1.24 -0.36 1.24 -1.08 v -16.54 c 0 -0.65 0.2 -1.28 0.6 -1.89 c 0.4 -0.61 0.92 -1.18 1.57 -1.7 c 0.65 -0.52 1.36 -0.93 2.14 -1.22 c 0.77 -0.29 1.51 -0.43 2.19 -0.43 c 0.5 0 1.05 0.03 1.65 0.08 c 0.59 0.05 1.16 0.15 1.7 0.3 c 0.47 0.07 0.7 -0.14 0.7 -0.65 v -5.19 c 0 -0.58 -0.65 -0.86 -1.95 -0.86 c -0.9 0 -1.83 0.19 -2.78 0.57 c -0.96 0.38 -1.89 0.92 -2.81 1.62 c -0.92 0.7 -1.78 1.58 -2.57 2.62 c -0.18 0.22 -0.34 0.3 -0.49 0.24 c -0.14 -0.06 -0.22 -0.19 -0.22 -0.41 v -3.3 c 0 -0.54 -0.25 -0.81 -0.76 -0.81 h -5.24 c -0.51 0 -0.76 0.31 -0.76 0.92 v 26.76 c 0 0.32 0.07 0.57 0.22 0.73 c 0.14 0.16 0.4 0.24 0.76 0.24 m -19.22 -4.27 c -1.48 0 -2.76 -0.39 -3.84 -1.16 c -1.08 -0.77 -1.9 -1.91 -2.46 -3.41 c -0.56 -1.5 -0.84 -3.33 -0.84 -5.49 s 0.28 -4.05 0.84 -5.57 c 0.56 -1.51 1.38 -2.67 2.46 -3.46 c 1.08 -0.79 2.36 -1.19 3.84 -1.19 s 2.79 0.4 3.84 1.19 c 1.04 0.79 1.85 1.95 2.41 3.46 c 0.56 1.51 0.84 3.37 0.84 5.57 s -0.27 3.99 -0.81 5.49 c -0.54 1.5 -1.33 2.63 -2.38 3.41 c -1.05 0.78 -2.34 1.16 -3.89 1.16 m -0.05 4.81 c 2.85 0 5.33 -0.63 7.46 -1.89 c 2.13 -1.26 3.79 -3 5 -5.22 c 1.21 -2.22 1.81 -4.77 1.81 -7.65 s -0.6 -5.5 -1.78 -7.76 c -1.19 -2.25 -2.85 -4.02 -4.97 -5.3 c -2.13 -1.28 -4.61 -1.92 -7.46 -1.92 s -5.18 0.63 -7.33 1.89 c -2.15 1.26 -3.84 3.02 -5.08 5.27 c -1.24 2.25 -1.86 4.88 -1.86 7.87 s 0.6 5.38 1.81 7.6 c 1.21 2.22 2.87 3.96 5 5.22 c 2.13 1.26 4.6 1.89 7.41 1.89 m -37.11 -21.84 c 0.76 -0.97 1.68 -1.77 2.79 -2.38 c 1.1 -0.61 2.32 -0.92 3.65 -0.92 c 2.16 0 3.8 0.84 4.92 2.51 c 1.12 1.68 1.68 4.24 1.68 7.7 c 0 2.49 -0.29 4.5 -0.86 6.03 c -0.58 1.53 -1.38 2.66 -2.41 3.38 s -2.23 1.08 -3.6 1.08 c -1.08 0 -2.09 -0.26 -3.03 -0.78 c -0.94 -0.52 -1.69 -1.23 -2.27 -2.11 c -0.58 -0.88 -0.87 -1.9 -0.87 -3.06 v -11.46 Z m -3.03 21.3 c 0.61 0 0.99 -0.34 1.14 -1.03 l 0.54 -2.59 c 0.04 -0.25 0.11 -0.39 0.22 -0.41 c 0.11 -0.02 0.23 0.06 0.38 0.24 c 0.5 0.61 1.15 1.26 1.95 1.95 c 0.79 0.69 1.76 1.25 2.89 1.7 c 1.14 0.45 2.41 0.68 3.81 0.68 c 3.93 0 6.96 -1.36 9.11 -4.08 c 2.14 -2.72 3.22 -6.37 3.22 -10.95 c 0 -2.88 -0.42 -5.43 -1.27 -7.65 c -0.85 -2.22 -2.12 -3.95 -3.81 -5.19 c -1.7 -1.24 -3.8 -1.86 -6.32 -1.86 c -1.3 0 -2.45 0.17 -3.46 0.51 c -1.01 0.34 -1.88 0.75 -2.62 1.22 c -0.74 0.47 -1.36 0.96 -1.87 1.46 c -0.25 0.22 -0.46 0.31 -0.62 0.27 c -0.16 -0.04 -0.24 -0.25 -0.24 -0.65 v -12.81 c 0 -0.61 -0.25 -0.92 -0.76 -0.92 h -5.46 c -0.54 0 -0.81 0.31 -0.81 0.92 v 38.11 c 0 0.4 0.07 0.68 0.22 0.84 c 0.14 0.16 0.43 0.24 0.87 0.24 h 2.92 Z m -16.11 -13.08 v 3.84 c 0 0.58 -0.19 1.14 -0.57 1.7 c -0.38 0.56 -0.88 1.09 -1.49 1.6 c -0.61 0.51 -1.33 0.92 -2.16 1.24 c -0.83 0.33 -1.73 0.49 -2.7 0.49 c -1.51 0 -2.71 -0.36 -3.6 -1.08 c -0.88 -0.72 -1.32 -1.69 -1.32 -2.92 c 0 -0.9 0.24 -1.68 0.73 -2.35 c 0.49 -0.67 1.14 -1.22 1.95 -1.68 c 0.81 -0.45 1.75 -0.81 2.81 -1.08 c 1.06 -0.27 2.17 -0.44 3.32 -0.51 l 2.22 -0.16 c 0.54 -0.04 0.81 0.27 0.81 0.92 m -0.92 10.11 c 0.61 -0.58 0.96 -0.56 1.03 0.05 l 0.11 1.62 c 0.04 0.36 0.13 0.67 0.27 0.92 c 0.14 0.25 0.38 0.38 0.7 0.38 h 4.6 c 0.36 0 0.6 -0.08 0.73 -0.24 c 0.13 -0.16 0.19 -0.44 0.19 -0.84 v -19.03 c 0 -1.84 -0.4 -3.43 -1.19 -4.78 c -0.79 -1.35 -2.05 -2.41 -3.76 -3.16 c -1.71 -0.76 -3.96 -1.14 -6.73 -1.14 c -3.13 0 -5.76 0.52 -7.87 1.57 c -2.11 1.05 -3.65 2.6 -4.62 4.65 c -0.22 0.43 -0.28 0.72 -0.19 0.86 c 0.09 0.14 0.22 0.25 0.4 0.32 l 4.54 1.14 c 0.32 0.07 0.55 0.07 0.68 0 c 0.13 -0.07 0.24 -0.22 0.35 -0.43 c 0.79 -1.26 1.74 -2.17 2.84 -2.73 c 1.1 -0.56 2.28 -0.84 3.54 -0.84 c 1.66 0 2.96 0.44 3.89 1.32 c 0.94 0.88 1.4 2.12 1.4 3.7 v 1.24 c 0 0.29 -0.09 0.49 -0.27 0.6 c -0.18 0.11 -0.38 0.18 -0.6 0.22 l -2.7 0.16 c -3.17 0.14 -5.89 0.63 -8.16 1.46 c -2.27 0.83 -4 1.97 -5.19 3.43 c -1.19 1.46 -1.78 3.18 -1.78 5.16 c 0 2.34 0.78 4.24 2.35 5.7 c 1.57 1.46 3.74 2.19 6.52 2.19 c 1.84 0 3.48 -0.32 4.92 -0.95 c 1.44 -0.63 2.78 -1.49 4 -2.57 m -47.7 -36.22 v 38.22 c 0 0.32 0.07 0.57 0.22 0.73 c 0.14 0.16 0.41 0.24 0.81 0.24 h 25.25 c 0.32 0 0.56 -0.08 0.7 -0.24 c 0.14 -0.16 0.22 -0.35 0.22 -0.57 v -4.38 c 0 -0.51 -0.29 -0.76 -0.87 -0.76 h -17.73 c -0.4 0 -0.59 -0.22 -0.59 -0.65 v -32.65 c 0 -0.58 -0.25 -0.86 -0.76 -0.86 h -6.43 c -0.54 0 -0.81 0.31 -0.81 0.92" stroke-linecap="round" />
</g>
		<g transform="matrix(1 0 0 1 228.06 -8.1107)" style="" id="Layer_1"  >
		<text xml:space="preserve" font-family="LibreFranklin-SemiBold, 'Libre Franklin'" font-size="54.06" font-style="normal" font-weight="600" style="stroke: none; stroke-width: 1; stroke-dasharray: none; stroke-linecap: butt; stroke-dashoffset: 0; stroke-linejoin: miter; stroke-miterlimit: 4; is-custom-font: none; font-file-url: none; fill: rgb(0,0,0); fill-rule: nonzero; opacity: 1; white-space: pre;" ></text>
</g>
		<g transform="matrix(1 0 0 1 66.59 43.105)" id="Layer_1"  >
<path style="stroke: none; stroke-width: 0; stroke-dasharray: none; stroke-linecap: butt; stroke-dashoffset: 0; stroke-linejoin: miter; stroke-miterlimit: 4; is-custom-font: none; font-file-url: none; fill: rgb(0,0,0); fill-rule: nonzero; opacity: 1;"  transform=" translate(-293.65, -117.9)" d="m 383.34 120.71 c 0 -1.44 0.28 -2.75 0.84 -3.92 c 0.56 -1.17 1.38 -2.11 2.46 -2.81 c 1.08 -0.7 2.34 -1.05 3.78 -1.05 s 2.6 0.35 3.57 1.05 c 0.97 0.7 1.71 1.6 2.22 2.68 c 0.5 1.08 0.76 2.18 0.76 3.3 c 0 0.33 -0.06 0.53 -0.19 0.62 c -0.13 0.09 -0.37 0.14 -0.73 0.14 h -12.7 Z m -0.11 4.87 c 0 -0.29 0.04 -0.5 0.14 -0.65 c 0.09 -0.14 0.24 -0.22 0.46 -0.22 h 19.14 c 0.47 -0.04 0.73 -0.16 0.78 -0.38 c 0.05 -0.22 0.08 -0.5 0.08 -0.87 c 0 -3.17 -0.58 -5.86 -1.73 -8.08 c -1.15 -2.22 -2.75 -3.92 -4.78 -5.11 c -2.04 -1.19 -4.42 -1.78 -7.16 -1.78 c -2.59 0 -4.97 0.62 -7.14 1.86 c -2.16 1.24 -3.88 3 -5.16 5.27 c -1.28 2.27 -1.92 4.97 -1.92 8.11 c 0 2.85 0.62 5.36 1.87 7.54 c 1.24 2.18 2.95 3.88 5.11 5.11 c 2.16 1.23 4.61 1.84 7.35 1.84 c 1.87 0 3.56 -0.21 5.05 -0.62 c 1.5 -0.41 2.87 -1.1 4.11 -2.05 c 1.24 -0.95 2.41 -2.23 3.49 -3.81 c 0.36 -0.43 0.31 -0.76 -0.16 -0.97 l -3.3 -1.46 c -0.25 -0.14 -0.43 -0.21 -0.54 -0.19 c -0.11 0.02 -0.24 0.12 -0.38 0.3 c -1.08 1.37 -2.23 2.36 -3.43 2.97 c -1.21 0.61 -2.55 0.92 -4.03 0.92 s -2.77 -0.33 -3.97 -1 c -1.21 -0.67 -2.15 -1.59 -2.84 -2.76 c -0.69 -1.17 -1.03 -2.5 -1.03 -3.97 m -35.63 12.11 h 4.81 c 0.83 0 1.24 -0.36 1.24 -1.08 v -19.25 c 0.83 -0.83 1.6 -1.51 2.32 -2.05 c 0.72 -0.54 1.45 -0.95 2.19 -1.22 c 0.74 -0.27 1.54 -0.41 2.41 -0.41 c 1.51 0 2.65 0.39 3.41 1.16 c 0.76 0.78 1.14 1.87 1.14 3.27 v 18.6 c 0 0.36 0.07 0.61 0.22 0.76 c 0.14 0.14 0.38 0.22 0.7 0.22 h 4.97 c 0.76 0 1.14 -0.38 1.14 -1.14 v -19.68 c 0 -2.52 -0.77 -4.55 -2.3 -6.08 c -1.53 -1.53 -3.63 -2.3 -6.3 -2.3 c -1.23 0 -2.36 0.18 -3.41 0.54 c -1.05 0.36 -2.05 0.86 -3.03 1.51 c -0.97 0.65 -1.98 1.42 -3.03 2.32 c -0.18 0.18 -0.33 0.24 -0.43 0.19 s -0.16 -0.19 -0.16 -0.4 v -2.81 c 0 -0.54 -0.23 -0.81 -0.7 -0.81 h -5.41 c -0.5 0 -0.76 0.31 -0.76 0.92 v 26.76 c 0 0.65 0.32 0.97 0.97 0.97 m -6.34 -39.2 c 0 -0.61 -0.27 -0.92 -0.81 -0.92 h -5.57 c -0.58 0 -0.87 0.34 -0.87 1.03 v 5.3 c 0 0.36 0.07 0.63 0.22 0.81 s 0.41 0.27 0.81 0.27 h 4.92 c 0.86 0 1.3 -0.41 1.3 -1.24 v -5.24 Z m -0.11 11.41 c 0 -0.58 -0.25 -0.86 -0.76 -0.86 h -5.46 c -0.54 0 -0.81 0.31 -0.81 0.92 v 26.76 c 0 0.32 0.07 0.57 0.22 0.73 s 0.41 0.24 0.81 0.24 h 4.7 c 0.47 0 0.8 -0.09 1 -0.27 c 0.2 -0.18 0.3 -0.49 0.3 -0.92 v -26.6 Z m -22.55 -1.41 c -2.7 0 -5.12 0.63 -7.24 1.89 c -2.13 1.26 -3.8 3.02 -5.03 5.27 c -1.22 2.25 -1.84 4.86 -1.84 7.81 s 0.6 5.49 1.81 7.7 c 1.21 2.22 2.87 3.95 5 5.19 c 2.13 1.24 4.56 1.87 7.3 1.87 c 1.73 0 3.27 -0.24 4.62 -0.73 c 1.35 -0.49 2.51 -1.12 3.49 -1.89 c 0.97 -0.77 1.79 -1.63 2.46 -2.57 c 0.67 -0.94 1.18 -1.82 1.54 -2.65 c 0.14 -0.5 0.04 -0.81 -0.32 -0.92 l -3.41 -0.92 c -0.25 -0.07 -0.43 -0.09 -0.54 -0.05 c -0.11 0.04 -0.22 0.13 -0.32 0.27 c -0.9 1.51 -1.87 2.69 -2.92 3.54 c -1.05 0.85 -2.38 1.27 -4 1.27 s -2.88 -0.39 -4 -1.16 c -1.12 -0.78 -1.99 -1.92 -2.62 -3.43 c -0.63 -1.51 -0.95 -3.39 -0.95 -5.62 s 0.3 -4.05 0.89 -5.57 c 0.6 -1.51 1.44 -2.66 2.54 -3.43 c 1.1 -0.78 2.37 -1.16 3.81 -1.16 c 0.94 0 1.73 0.18 2.38 0.54 c 0.65 0.36 1.23 0.85 1.73 1.46 c 0.5 0.61 0.99 1.32 1.46 2.11 c 0.14 0.4 0.4 0.56 0.76 0.49 l 4.76 -0.59 c 0.58 -0.04 0.76 -0.38 0.54 -1.03 c -0.54 -1.3 -1.32 -2.53 -2.35 -3.7 c -1.03 -1.17 -2.33 -2.13 -3.92 -2.87 c -1.59 -0.74 -3.46 -1.11 -5.62 -1.11 m -17.93 -10 c 0 -0.61 -0.27 -0.92 -0.81 -0.92 h -5.57 c -0.58 0 -0.86 0.34 -0.86 1.03 v 5.3 c 0 0.36 0.07 0.63 0.22 0.81 c 0.14 0.18 0.41 0.27 0.81 0.27 h 4.92 c 0.87 0 1.3 -0.41 1.3 -1.24 v -5.24 Z m -0.11 11.41 c 0 -0.58 -0.25 -0.86 -0.76 -0.86 h -5.46 c -0.54 0 -0.81 0.31 -0.81 0.92 v 26.76 c 0 0.32 0.07 0.57 0.22 0.73 s 0.41 0.24 0.81 0.24 h 4.7 c 0.47 0 0.8 -0.09 1 -0.27 c 0.2 -0.18 0.3 -0.49 0.3 -0.92 v -26.6 Z m -19.55 6.22 v 12.22 c 0 0.83 -0.27 1.66 -0.81 2.49 c -0.54 0.83 -1.27 1.51 -2.19 2.05 c -0.92 0.54 -1.96 0.81 -3.11 0.81 c -1.33 0 -2.53 -0.34 -3.6 -1.03 c -1.06 -0.68 -1.9 -1.78 -2.51 -3.27 c -0.61 -1.49 -0.92 -3.45 -0.92 -5.87 s 0.3 -4.33 0.92 -5.86 c 0.61 -1.53 1.47 -2.67 2.57 -3.41 c 1.1 -0.74 2.33 -1.11 3.7 -1.11 c 1.19 0 2.24 0.26 3.16 0.78 c 0.92 0.52 1.85 1.25 2.78 2.19 m 1.13 21.57 h 4.76 c 0.43 0 0.73 -0.08 0.89 -0.24 c 0.16 -0.16 0.24 -0.42 0.24 -0.78 v -38.17 c 0 -0.61 -0.27 -0.92 -0.81 -0.92 h -5.46 c -0.51 0 -0.76 0.29 -0.76 0.87 v 12.49 c 0 0.4 -0.07 0.62 -0.22 0.68 c -0.15 0.05 -0.38 -0.03 -0.7 -0.24 c -0.97 -0.9 -2.03 -1.6 -3.16 -2.11 c -1.13 -0.5 -2.5 -0.76 -4.08 -0.76 c -2.27 0 -4.33 0.63 -6.16 1.89 c -1.84 1.26 -3.29 3.03 -4.35 5.3 c -1.06 2.27 -1.6 4.92 -1.6 7.95 c 0 3.24 0.51 5.95 1.51 8.11 c 1.01 2.16 2.38 3.78 4.11 4.87 c 1.73 1.08 3.69 1.62 5.89 1.62 c 1.4 0 2.62 -0.19 3.65 -0.57 c 1.03 -0.38 1.9 -0.84 2.62 -1.38 c 0.72 -0.54 1.35 -1.06 1.89 -1.57 c 0.18 -0.18 0.34 -0.25 0.49 -0.22 c 0.14 0.04 0.22 0.18 0.22 0.43 v 1.78 c 0 0.36 0.1 0.61 0.3 0.76 c 0.2 0.14 0.44 0.22 0.73 0.22 m -44.44 -16.98 c 0 -1.44 0.28 -2.75 0.84 -3.92 c 0.56 -1.17 1.38 -2.11 2.46 -2.81 c 1.08 -0.7 2.34 -1.05 3.78 -1.05 s 2.6 0.35 3.57 1.05 c 0.97 0.7 1.71 1.6 2.22 2.68 c 0.5 1.08 0.76 2.18 0.76 3.3 c 0 0.33 -0.06 0.53 -0.19 0.62 c -0.13 0.09 -0.37 0.14 -0.73 0.14 h -12.71 Z m -0.11 4.87 c 0 -0.29 0.04 -0.5 0.13 -0.65 c 0.09 -0.14 0.24 -0.22 0.46 -0.22 h 19.14 c 0.47 -0.04 0.73 -0.16 0.78 -0.38 c 0.05 -0.22 0.08 -0.5 0.08 -0.87 c 0 -3.17 -0.58 -5.86 -1.73 -8.08 c -1.15 -2.22 -2.75 -3.92 -4.79 -5.11 c -2.04 -1.19 -4.42 -1.78 -7.16 -1.78 c -2.6 0 -4.97 0.62 -7.14 1.86 c -2.16 1.24 -3.88 3 -5.16 5.27 c -1.28 2.27 -1.92 4.97 -1.92 8.11 c 0 2.85 0.62 5.36 1.87 7.54 c 1.24 2.18 2.95 3.88 5.11 5.11 c 2.16 1.23 4.61 1.84 7.35 1.84 c 1.87 0 3.56 -0.21 5.05 -0.62 c 1.5 -0.41 2.87 -1.1 4.11 -2.05 c 1.24 -0.95 2.41 -2.23 3.49 -3.81 c 0.36 -0.43 0.31 -0.76 -0.16 -0.97 l -3.3 -1.46 c -0.25 -0.14 -0.43 -0.21 -0.54 -0.19 c -0.11 0.02 -0.23 0.12 -0.38 0.3 c -1.08 1.37 -2.23 2.36 -3.43 2.97 c -1.21 0.61 -2.55 0.92 -4.03 0.92 s -2.77 -0.33 -3.97 -1 c -1.21 -0.67 -2.15 -1.59 -2.84 -2.76 c -0.68 -1.17 -1.03 -2.5 -1.03 -3.97 m -53.08 12.11 h 4.6 c 0.4 0 0.65 -0.06 0.76 -0.19 c 0.11 -0.13 0.16 -0.35 0.16 -0.68 v -27.95 c 0 -0.25 0.05 -0.39 0.16 -0.4 c 0.11 -0.02 0.2 0.1 0.27 0.35 l 10.16 28.06 c 0.18 0.54 0.58 0.81 1.19 0.81 h 3.84 c 0.54 0 0.9 -0.27 1.08 -0.81 l 10.27 -28.38 c 0.07 -0.22 0.16 -0.33 0.27 -0.35 c 0.11 -0.02 0.16 0.08 0.16 0.3 v 28.28 c 0 0.32 0.08 0.57 0.24 0.73 c 0.16 0.16 0.42 0.24 0.78 0.24 h 5.78 c 0.79 0 1.19 -0.38 1.19 -1.14 v -38.11 c 0 -0.58 -0.25 -0.87 -0.76 -0.87 h -9.46 c -0.51 0 -0.87 0.34 -1.08 1.03 l -9.24 25.19 c -0.11 0.29 -0.24 0.44 -0.38 0.46 c -0.14 0.02 -0.27 -0.12 -0.38 -0.4 l -9.51 -25.52 c -0.07 -0.32 -0.19 -0.53 -0.35 -0.62 c -0.16 -0.09 -0.42 -0.14 -0.78 -0.14 h -9.14 c -0.58 0 -0.86 0.31 -0.86 0.92 v 38.11 c 0 0.72 0.34 1.08 1.03 1.08" stroke-linecap="round" />
</g>
</g>
</g>
</svg>